<svg width="137" height="34" viewBox="0 0 137 34" fill="none" xmlns="http://www.w3.org/2000/svg">
<path d="M97.7907 14.5593V17.6522H95.8282V19.6805H97.7907V26.5722C97.7907 28.9255 98.8685 29.8668 101.58 29.8668C102.056 29.8668 102.51 29.8107 102.907 29.7435V27.7376C102.567 27.7712 102.351 27.7936 101.977 27.7936C100.763 27.7936 100.23 27.2333 100.23 25.9559V19.6805H102.907V17.6522H100.23V14.5593H97.7907Z" fill="#010E38"/>
<path d="M109.814 30.0349C113.422 30.0349 115.634 27.648 115.634 23.6922C115.634 19.7589 113.41 17.3608 109.814 17.3608C106.206 17.3608 103.983 19.7589 103.983 23.6922C103.983 27.648 106.195 30.0349 109.814 30.0349ZM109.814 27.8945C107.693 27.8945 106.501 26.3593 106.501 23.6922C106.501 21.0476 107.693 19.5012 109.814 19.5012C111.924 19.5012 113.127 21.0476 113.127 23.6922C113.127 26.3481 111.924 27.8945 109.814 27.8945Z" fill="#010E38"/>
<path d="M117.526 29.7995H119.965V22.594C119.965 20.8795 121.27 19.7253 123.119 19.7253C123.55 19.7253 124.276 19.8037 124.48 19.871V17.4953C124.22 17.428 123.754 17.3944 123.391 17.3944C121.781 17.3944 120.408 18.2685 120.056 19.4675H119.875V17.5961H117.526V29.7995Z" fill="#010E38"/>
<path d="M130.537 19.4115C132.34 19.4115 133.52 20.6554 133.577 22.5716H127.337C127.474 20.6666 128.733 19.4115 130.537 19.4115ZM133.566 26.5049C133.112 27.4575 132.102 27.9841 130.627 27.9841C128.676 27.9841 127.417 26.6282 127.337 24.4879V24.3534H136.061V23.5129C136.061 19.6805 133.985 17.3608 130.548 17.3608C127.065 17.3608 124.853 19.8373 124.853 23.7371C124.853 27.6368 127.02 30.0349 130.559 30.0349C133.384 30.0349 135.358 28.6901 135.914 26.5049H133.566Z" fill="#010E38"/>
<path d="M81.7958 25.293C81.984 28.2896 84.512 30.206 88.2746 30.206C92.2959 30.206 94.8121 28.1967 94.8121 24.991C94.8121 22.4706 93.3776 21.0769 89.8972 20.2754L88.0276 19.8225C85.8171 19.3114 84.9235 18.6261 84.9235 17.4298C84.9235 15.9199 86.311 14.9327 88.3922 14.9327C90.3675 14.9327 91.7315 15.8967 91.9784 17.4414H94.5417C94.3888 14.6191 91.8726 12.6329 88.4274 12.6329C84.7236 12.6329 82.2544 14.6191 82.2544 17.604C82.2544 20.0664 83.6536 21.5298 86.7225 22.2383L88.9095 22.761C91.1553 23.2837 92.143 24.0502 92.143 25.3279C92.143 26.8145 90.5909 27.8947 88.4745 27.8947C86.2051 27.8947 84.6295 26.8842 84.4061 25.293H81.7958Z" fill="#010E38"/>
<path d="M56.5298 17.3944C54.8508 17.3944 53.3988 18.2237 52.65 19.6132H52.4685V17.5961H50.1202V33.8561H52.5593V27.9505H52.7521C53.3988 29.2392 54.7941 30.0012 56.5525 30.0012C59.6722 30.0012 61.6575 27.5695 61.6575 23.6922C61.6575 19.8149 59.6722 17.3944 56.5298 17.3944ZM55.8378 27.8385C53.7958 27.8385 52.5139 26.2472 52.5139 23.7034C52.5139 21.1485 53.7958 19.5572 55.8492 19.5572C57.9138 19.5572 59.1504 21.1148 59.1504 23.6922C59.1504 26.2808 57.9138 27.8385 55.8378 27.8385Z" fill="#010E38"/>
<path d="M70.1921 17.3944C68.5131 17.3944 67.0611 18.2237 66.3123 19.6132H66.1308V17.5961H63.7825V33.8561H66.2216V27.9505H66.4144C67.0611 29.2392 68.4564 30.0012 70.2148 30.0012C73.3345 30.0012 75.3198 27.5695 75.3198 23.6922C75.3198 19.8149 73.3345 17.3944 70.1921 17.3944ZM69.5001 27.8385C67.4581 27.8385 66.1762 26.2472 66.1762 23.7034C66.1762 21.1485 67.4581 19.5572 69.5114 19.5572C71.5761 19.5572 72.8127 21.1148 72.8127 23.6922C72.8127 26.2808 71.5761 27.8385 69.5001 27.8385Z" fill="#010E38"/>
<path d="M45.7442 29.7995H48.5426L42.4166 13.0395H39.5829L33.4569 29.7995H36.1613L37.7251 25.3511H44.1921L45.7442 29.7995ZM40.8645 16.0825H41.0644L43.5219 23.1675H38.3953L40.8645 16.0825Z" fill="#010E38"/>
<path d="M35.0952 0.397815V8.48298H38.0504C40.4895 8.48298 41.9019 6.99818 41.9019 4.41519C41.9019 1.87141 40.4781 0.397815 38.0504 0.397815H35.0952ZM36.3658 1.54083H37.9086C39.6046 1.54083 40.6086 2.60541 40.6086 4.43199C40.6086 6.2866 39.6216 7.33997 37.9086 7.33997H36.3658V1.54083Z" fill="#010E38"/>
<path d="M46.2275 8.60065C48.0312 8.60065 49.1373 7.4072 49.1373 5.42933C49.1373 3.46267 48.0256 2.26362 46.2275 2.26362C44.4237 2.26362 43.312 3.46267 43.312 5.42933C43.312 7.4072 44.418 8.60065 46.2275 8.60065ZM46.2275 7.53047C45.1668 7.53047 44.5712 6.76285 44.5712 5.42933C44.5712 4.10702 45.1668 3.3338 46.2275 3.3338C47.2825 3.3338 47.8838 4.10702 47.8838 5.42933C47.8838 6.75725 47.2825 7.53047 46.2275 7.53047Z" fill="#010E38"/>
<path d="M58.5566 2.38129H57.337L56.2366 7.0374H56.1402L54.8696 2.38129H53.7012L52.4306 7.0374H52.3398L51.2338 2.38129H49.9972L51.6989 8.48298H52.9524L54.223 3.98936H54.3194L55.5957 8.48298H56.8606L58.5566 2.38129Z" fill="#010E38"/>
<path d="M59.961 8.48298H61.1805V4.91386C61.1805 3.96134 61.7534 3.36742 62.6553 3.36742C63.5572 3.36742 63.9883 3.85488 63.9883 4.83541V8.48298H65.2078V4.53285C65.2078 3.08167 64.4477 2.26362 63.0694 2.26362C62.1391 2.26362 61.5265 2.67264 61.2259 3.35061H61.1352V2.38129H59.961V8.48298Z" fill="#010E38"/>
<path d="M67.1284 8.48298H68.3479V0H67.1284V8.48298Z" fill="#010E38"/>
<path d="M72.9345 8.60065C74.7382 8.60065 75.8443 7.4072 75.8443 5.42933C75.8443 3.46267 74.7326 2.26362 72.9345 2.26362C71.1307 2.26362 70.019 3.46267 70.019 5.42933C70.019 7.4072 71.125 8.60065 72.9345 8.60065ZM72.9345 7.53047C71.8738 7.53047 71.2782 6.76285 71.2782 5.42933C71.2782 4.10702 71.8738 3.3338 72.9345 3.3338C73.9895 3.3338 74.5907 4.10702 74.5907 5.42933C74.5907 6.75725 73.9895 7.53047 72.9345 7.53047Z" fill="#010E38"/>
<path d="M79.4779 7.56969C78.8143 7.56969 78.3321 7.25032 78.3321 6.70122C78.3321 6.16333 78.7178 5.87758 79.5687 5.82155L81.0775 5.72629V6.23617C81.0775 6.99258 80.3968 7.56969 79.4779 7.56969ZM79.1659 8.58384C79.9771 8.58384 80.6521 8.23645 81.0207 7.62572H81.1172V8.48298H82.2913V4.31433C82.2913 3.02563 81.4178 2.26362 79.8693 2.26362C78.4683 2.26362 77.47 2.93599 77.3452 3.98375H78.525C78.6611 3.55232 79.1319 3.30579 79.8126 3.30579C80.6464 3.30579 81.0775 3.66998 81.0775 4.31433V4.84102L79.4042 4.93627C77.9351 5.02592 77.1069 5.65906 77.1069 6.75725C77.1069 7.87225 77.9748 8.58384 79.1659 8.58384Z" fill="#010E38"/>
<path d="M86.4298 8.58384C87.2806 8.58384 88.001 8.18602 88.3697 7.51926H88.4661V8.48298H89.6346V0H88.415V3.35061H88.3243C87.9896 2.67825 87.2749 2.28043 86.4298 2.28043C84.8699 2.28043 83.8659 3.50189 83.8659 5.42933C83.8659 7.36238 84.8586 8.58384 86.4298 8.58384ZM86.7758 3.36182C87.7968 3.36182 88.4377 4.16305 88.4377 5.43494C88.4377 6.71243 87.8024 7.50245 86.7758 7.50245C85.7434 7.50245 85.1252 6.72363 85.1252 5.42933C85.1252 4.14624 85.7491 3.36182 86.7758 3.36182Z" fill="#010E38"/>
<path d="M97.5427 8.60065C99.3465 8.60065 100.453 7.4072 100.453 5.42933C100.453 3.46267 99.3408 2.26362 97.5427 2.26362C95.739 2.26362 94.6272 3.46267 94.6272 5.42933C94.6272 7.4072 95.7333 8.60065 97.5427 8.60065ZM97.5427 7.53047C96.482 7.53047 95.8865 6.76285 95.8865 5.42933C95.8865 4.10702 96.482 3.3338 97.5427 3.3338C98.5978 3.3338 99.199 4.10702 99.199 5.42933C99.199 6.75725 98.5978 7.53047 97.5427 7.53047Z" fill="#010E38"/>
<path d="M102.067 8.48298H103.286V4.91386C103.286 3.96134 103.859 3.36742 104.761 3.36742C105.663 3.36742 106.094 3.85488 106.094 4.83541V8.48298H107.314V4.53285C107.314 3.08167 106.554 2.26362 105.175 2.26362C104.245 2.26362 103.632 2.67264 103.332 3.35061H103.241V2.38129H102.067V8.48298Z" fill="#010E38"/>
<path d="M112.93 0.862866V2.4093H111.949V3.42345H112.93V6.86931C112.93 8.04595 113.469 8.5166 114.825 8.5166C115.063 8.5166 115.29 8.48859 115.488 8.45497V7.45203C115.318 7.46884 115.211 7.48004 115.023 7.48004C114.416 7.48004 114.15 7.19989 114.15 6.56115V3.42345H115.488V2.4093H114.15V0.862866H112.93Z" fill="#010E38"/>
<path d="M117.125 8.48298H118.345V4.91946C118.345 3.99496 118.901 3.37302 119.899 3.37302C120.761 3.37302 121.221 3.86609 121.221 4.84102V8.48298H122.44V4.54406C122.44 3.09287 121.629 2.26923 120.313 2.26923C119.383 2.26923 118.731 2.67825 118.43 3.36182H118.334V0H117.125V8.48298Z" fill="#010E38"/>
<path d="M126.84 3.28898C127.742 3.28898 128.331 3.91091 128.36 4.86903H125.24C125.308 3.91652 125.938 3.28898 126.84 3.28898ZM128.354 6.83569C128.127 7.31195 127.622 7.57529 126.885 7.57529C125.909 7.57529 125.28 6.89733 125.24 5.82715V5.75991H129.602V5.33969C129.602 3.42345 128.564 2.26362 126.845 2.26362C125.104 2.26362 123.998 3.50189 123.998 5.45175C123.998 7.4016 125.081 8.60065 126.851 8.60065C128.263 8.60065 129.25 7.92828 129.528 6.83569H128.354Z" fill="#010E38"/>
<path d="M20.223 16.0441C20.2526 13.7748 21.4864 11.6275 23.4436 10.4389C22.2089 8.69693 20.1407 7.59249 17.989 7.52599C15.6941 7.28804 13.4692 8.88252 12.2997 8.88252C11.1076 8.88252 9.30706 7.54962 7.36813 7.58903C4.84081 7.66968 2.48473 9.08905 1.25514 11.2716C-1.388 15.792 0.583542 22.4354 3.11544 26.0894C4.38221 27.8786 5.86269 29.8772 7.79987 29.8063C9.69552 29.7286 10.4035 28.6123 12.6917 28.6123C14.9587 28.6123 15.6229 29.8063 17.5994 29.7612C19.6335 29.7286 20.9151 27.9641 22.1375 26.1579C23.0476 24.883 23.748 23.474 24.2126 21.983C21.8222 20.9843 20.2258 18.608 20.223 16.0441Z" fill="#010E38"/>
<path d="M16.4897 5.123C17.5988 3.80782 18.1452 2.11737 18.0129 0.41066C16.3185 0.586457 14.7533 1.38641 13.6292 2.65113C12.53 3.88683 11.958 5.54753 12.0661 7.18901C13.7612 7.20625 15.4276 6.42798 16.4897 5.123Z" fill="#010E38"/>
</svg>
