<svg viewBox="0 0 40 40" fill="none" xmlns="http://www.w3.org/2000/svg">
<path opacity="0.4" d="M30 5H20C16.3181 5 13.3333 7.98477 13.3333 11.6667V28.3333C13.3333 32.0152 16.3181 35 20 35H30C33.6819 35 36.6667 32.0152 36.6667 28.3333V11.6667C36.6667 7.98477 33.6819 5 30 5Z" fill="#1878F3"/>
<path opacity="0.4" d="M3.33333 7.5C3.33333 6.11929 4.45262 5 5.83333 5C7.21404 5 8.33333 6.11929 8.33333 7.5V30.3333C8.33333 31.1988 8.05262 32.0409 7.53333 32.7333L5.83333 35L4.13333 32.7333C3.61404 32.0409 3.33333 31.1988 3.33333 30.3333V7.5Z" fill="#1878F3"/>
<path d="M8.33333 11.6667H3.33333V7C3.33333 5.89543 4.22876 5 5.33333 5H6.33333C7.4379 5 8.33333 5.89543 8.33333 7V11.6667Z" fill="#1878F3"/>
<path fill-rule="evenodd" clip-rule="evenodd" d="M18.75 11.6665C18.75 10.9761 19.3096 10.4165 20 10.4165H30C30.6904 10.4165 31.25 10.9761 31.25 11.6665C31.25 12.3569 30.6904 12.9165 30 12.9165H20C19.3096 12.9165 18.75 12.3569 18.75 11.6665Z" fill="#1878F3"/>
<path fill-rule="evenodd" clip-rule="evenodd" d="M18.75 18.3335C18.75 17.6431 19.3096 17.0835 20 17.0835H30C30.6904 17.0835 31.25 17.6431 31.25 18.3335C31.25 19.0239 30.6904 19.5835 30 19.5835H20C19.3096 19.5835 18.75 19.0239 18.75 18.3335Z" fill="#1878F3"/>
<path fill-rule="evenodd" clip-rule="evenodd" d="M18.75 25C18.75 24.3096 19.3096 23.75 20 23.75H25C25.6904 23.75 26.25 24.3096 26.25 25C26.25 25.6904 25.6904 26.25 25 26.25H20C19.3096 26.25 18.75 25.6904 18.75 25Z" fill="#1878F3"/>
<path fill-rule="evenodd" clip-rule="evenodd" d="M37.4898 27.3928C38.0094 27.8474 38.062 28.6371 37.6074 29.1566L32.8242 34.6231C31.7964 35.7978 30.026 35.9551 28.8072 34.98L25.8858 32.6429C25.3468 32.2117 25.2594 31.4251 25.6906 30.886C26.1219 30.3469 26.9085 30.2595 27.4476 30.6908L30.3689 33.0279C30.5431 33.1671 30.796 33.1447 30.9428 32.9769L35.726 27.5104C36.1806 26.9908 36.9703 26.9382 37.4898 27.3928Z" fill="#1878F3"/>
</svg>
