<svg width="16" height="159" viewBox="0 0 16 159" fill="none" xmlns="http://www.w3.org/2000/svg">
<path d="M9.00001 1C9.00001 0.447715 8.55229 8.37461e-08 8.00001 5.96049e-08C7.44772 3.54638e-08 7.00001 0.447715 7.00001 1L9.00001 1ZM7.29289 158.707C7.68342 159.098 8.31658 159.098 8.70711 158.707L15.0711 152.343C15.4616 151.953 15.4616 151.319 15.0711 150.929C14.6805 150.538 14.0474 150.538 13.6569 150.929L8 156.586L2.34315 150.929C1.95262 150.538 1.31946 150.538 0.928932 150.929C0.538408 151.319 0.538408 151.953 0.928932 152.343L7.29289 158.707ZM7.00001 7.54167C7.00001 8.09395 7.44772 8.54167 8.00001 8.54167C8.55229 8.54167 9.00001 8.09395 9.00001 7.54167L7.00001 7.54167ZM9.00001 20.625C9.00001 20.0727 8.55229 19.625 8.00001 19.625C7.44772 19.625 7.00001 20.0727 7.00001 20.625L9.00001 20.625ZM7.00001 33.7083C7.00001 34.2606 7.44772 34.7083 8.00001 34.7083C8.55229 34.7083 9.00001 34.2606 9.00001 33.7083L7.00001 33.7083ZM9 46.7917C9 46.2394 8.55229 45.7917 8 45.7917C7.44772 45.7917 7 46.2394 7 46.7917L9 46.7917ZM7 59.875C7 60.4273 7.44772 60.875 8 60.875C8.55229 60.875 9 60.4273 9 59.875L7 59.875ZM9 72.9583C9 72.406 8.55229 71.9583 8 71.9583C7.44772 71.9583 7 72.406 7 72.9583L9 72.9583ZM7 86.0417C7 86.5939 7.44772 87.0417 8 87.0417C8.55229 87.0417 9 86.5939 9 86.0417L7 86.0417ZM9 99.125C9 98.5727 8.55229 98.125 8 98.125C7.44772 98.125 7 98.5727 7 99.125L9 99.125ZM7 112.208C7 112.761 7.44772 113.208 8 113.208C8.55229 113.208 9 112.761 9 112.208L7 112.208ZM9 125.292C9 124.739 8.55229 124.292 8 124.292C7.44772 124.292 7 124.739 7 125.292L9 125.292ZM7 138.375C7 138.927 7.44772 139.375 8 139.375C8.55229 139.375 9 138.927 9 138.375L7 138.375ZM9 151.458C9 150.906 8.55228 150.458 8 150.458C7.44772 150.458 7 150.906 7 151.458L9 151.458ZM7.00001 1L7.00001 7.54167L9.00001 7.54167L9.00001 1L7.00001 1ZM7.00001 20.625L7.00001 33.7083L9.00001 33.7083L9.00001 20.625L7.00001 20.625ZM7 46.7917L7 59.875L9 59.875L9 46.7917L7 46.7917ZM7 72.9583L7 86.0417L9 86.0417L9 72.9583L7 72.9583ZM7 99.125L7 112.208L9 112.208L9 99.125L7 99.125ZM7 125.292L7 138.375L9 138.375L9 125.292L7 125.292ZM7 151.458L7 158L9 158L9 151.458L7 151.458Z" fill="#00A5FF"/>
</svg>
