<svg width="16" height="186" viewBox="0 0 16 186" fill="none" xmlns="http://www.w3.org/2000/svg">
<path d="M8.70711 0.292893C8.31658 -0.0976311 7.68342 -0.0976311 7.29289 0.292893L0.928932 6.65685C0.538408 7.04738 0.538408 7.68054 0.928932 8.07107C1.31946 8.46159 1.95262 8.46159 2.34315 8.07107L8 2.41421L13.6569 8.07107C14.0474 8.46159 14.6805 8.46159 15.0711 8.07107C15.4616 7.68054 15.4616 7.04738 15.0711 6.65685L8.70711 0.292893ZM6.99999 185C6.99999 185.552 7.44771 186 7.99999 186C8.55228 186 8.99999 185.552 8.99999 185L6.99999 185ZM7 7.57143C7 8.12371 7.44771 8.57143 8 8.57143C8.55228 8.57143 9 8.12371 9 7.57143L7 7.57143ZM9 20.7143C9 20.162 8.55228 19.7143 8 19.7143C7.44771 19.7143 7 20.162 7 20.7143L9 20.7143ZM7 33.8571C7 34.4094 7.44771 34.8571 8 34.8571C8.55228 34.8571 9 34.4094 9 33.8571L7 33.8571ZM9 47C9 46.4477 8.55228 46 8 46C7.44771 46 7 46.4477 7 47L9 47ZM7 60.1429C7 60.6951 7.44771 61.1429 8 61.1429C8.55228 61.1429 9 60.6951 9 60.1429L7 60.1429ZM9 73.2857C9 72.7334 8.55228 72.2857 8 72.2857C7.44771 72.2857 7 72.7334 7 73.2857L9 73.2857ZM7 86.4286C7 86.9808 7.44771 87.4286 8 87.4286C8.55228 87.4286 9 86.9808 9 86.4286L7 86.4286ZM9 99.5714C9 99.0191 8.55228 98.5714 8 98.5714C7.44771 98.5714 7 99.0191 7 99.5714L9 99.5714ZM7 112.714C7 113.267 7.44771 113.714 8 113.714C8.55228 113.714 9 113.267 9 112.714L7 112.714ZM8.99999 125.857C8.99999 125.305 8.55228 124.857 7.99999 124.857C7.44771 124.857 6.99999 125.305 6.99999 125.857L8.99999 125.857ZM6.99999 139C6.99999 139.552 7.44771 140 7.99999 140C8.55228 140 8.99999 139.552 8.99999 139L6.99999 139ZM8.99999 152.143C8.99999 151.591 8.55228 151.143 7.99999 151.143C7.44771 151.143 6.99999 151.591 6.99999 152.143L8.99999 152.143ZM6.99999 165.286C6.99999 165.838 7.44771 166.286 7.99999 166.286C8.55228 166.286 8.99999 165.838 8.99999 165.286L6.99999 165.286ZM8.99999 178.429C8.99999 177.876 8.55228 177.429 7.99999 177.429C7.44771 177.429 6.99999 177.876 6.99999 178.429L8.99999 178.429ZM7 1L7 7.57143L9 7.57143L9 1L7 1ZM7 20.7143L7 33.8571L9 33.8571L9 20.7143L7 20.7143ZM7 47L7 60.1429L9 60.1429L9 47L7 47ZM7 73.2857L7 86.4286L9 86.4286L9 73.2857L7 73.2857ZM7 99.5714L7 112.714L9 112.714L9 99.5714L7 99.5714ZM6.99999 125.857L6.99999 139L8.99999 139L8.99999 125.857L6.99999 125.857ZM6.99999 152.143L6.99999 165.286L8.99999 165.286L8.99999 152.143L6.99999 152.143ZM6.99999 178.429L6.99999 185L8.99999 185L8.99999 178.429L6.99999 178.429Z" fill="#00A5FF"/>
</svg>
