<svg width="16" height="100" viewBox="0 0 16 100" fill="none" xmlns="http://www.w3.org/2000/svg">
<path d="M9 1C9 0.447715 8.55228 -2.41411e-08 8 0C7.44772 2.41411e-08 7 0.447715 7 1L9 1ZM7.2929 99.7071C7.68342 100.098 8.31659 100.098 8.70711 99.7071L15.0711 93.3431C15.4616 92.9526 15.4616 92.3195 15.0711 91.9289C14.6805 91.5384 14.0474 91.5384 13.6569 91.9289L8 97.5858L2.34315 91.9289C1.95263 91.5384 1.31946 91.5384 0.928936 91.9289C0.538412 92.3195 0.538412 92.9526 0.928936 93.3431L7.2929 99.7071ZM7 7.125C7 7.67728 7.44772 8.125 8 8.125C8.55229 8.125 9 7.67728 9 7.125L7 7.125ZM9 19.375C9 18.8227 8.55229 18.375 8 18.375C7.44772 18.375 7 18.8227 7 19.375L9 19.375ZM7 31.625C7 32.1773 7.44772 32.625 8 32.625C8.55229 32.625 9 32.1773 9 31.625L7 31.625ZM9 43.875C9 43.3227 8.55229 42.875 8 42.875C7.44772 42.875 7 43.3227 7 43.875L9 43.875ZM7 56.125C7 56.6773 7.44772 57.125 8 57.125C8.55229 57.125 9 56.6773 9 56.125L7 56.125ZM9 68.375C9 67.8227 8.55229 67.375 8 67.375C7.44772 67.375 7 67.8227 7 68.375L9 68.375ZM7 80.625C7 81.1773 7.44772 81.625 8 81.625C8.55229 81.625 9 81.1773 9 80.625L7 80.625ZM9 92.875C9 92.3227 8.55229 91.875 8 91.875C7.44772 91.875 7 92.3227 7 92.875L9 92.875ZM7 1L7 7.125L9 7.125L9 1L7 1ZM7 19.375L7 31.625L9 31.625L9 19.375L7 19.375ZM7 43.875L7 56.125L9 56.125L9 43.875L7 43.875ZM7 68.375L7 80.625L9 80.625L9 68.375L7 68.375ZM7 92.875L7 99L9 99L9 92.875L7 92.875Z" fill="#00A5FF"/>
</svg>
