<svg width="846" height="111" viewBox="0 0 846 111" fill="none" xmlns="http://www.w3.org/2000/svg">
<path d="M2 1C2 0.447715 1.55228 0 1 0C0.447715 0 0 0.447715 0 1L2 1ZM838.707 0.292893C838.317 -0.0976311 837.683 -0.0976311 837.293 0.292893L830.929 6.65685C830.538 7.04738 830.538 7.68054 830.929 8.07107C831.319 8.46159 831.953 8.46159 832.343 8.07107L838 2.41421L843.657 8.07107C844.047 8.46159 844.681 8.46159 845.071 8.07107C845.462 7.68054 845.462 7.04738 845.071 6.65685L838.707 0.292893ZM0 7.625C0 8.17728 0.447715 8.625 1 8.625C1.55228 8.625 2 8.17728 2 7.625H0ZM2 20.875C2 20.3227 1.55228 19.875 1 19.875C0.447715 19.875 0 20.3227 0 20.875H2ZM0 34.125C0 34.6773 0.447715 35.125 1 35.125C1.55228 35.125 2 34.6773 2 34.125H0ZM2 47.375C2 46.8227 1.55228 46.375 1 46.375C0.447715 46.375 0 46.8227 0 47.375H2ZM0.481729 61.4435C0.553164 61.9911 1.05503 62.3772 1.60267 62.3057C2.15032 62.2343 2.53636 61.7324 2.46493 61.1848L0.481729 61.4435ZM6.17304 75.0531C5.96148 74.5429 5.37642 74.3008 4.86626 74.5124C4.3561 74.7239 4.11403 75.309 4.32558 75.8192L6.17304 75.0531ZM11.7767 88.7012C12.1132 89.1392 12.741 89.2214 13.179 88.8848C13.6169 88.5483 13.6991 87.9205 13.3626 87.4826L11.7767 88.7012ZM23.5174 97.6375C23.0795 97.3009 22.4517 97.3831 22.1152 97.821C21.7787 98.259 21.8608 98.8868 22.2988 99.2233L23.5174 97.6375ZM35.1808 106.674C35.691 106.886 36.2761 106.644 36.4876 106.134C36.6992 105.624 36.4571 105.039 35.9469 104.827L35.1808 106.674ZM49.8152 108.535C49.2676 108.464 48.7657 108.85 48.6943 109.397C48.6229 109.945 49.0089 110.447 49.5565 110.518L49.8152 108.535ZM63.9712 111C64.5234 111 64.9712 110.552 64.9712 110C64.9712 109.448 64.5234 109 63.9712 109V111ZM77.9135 109C77.3612 109 76.9135 109.448 76.9135 110C76.9135 110.552 77.3612 111 77.9135 111V109ZM91.8558 111C92.4081 111 92.8558 110.552 92.8558 110C92.8558 109.448 92.4081 109 91.8558 109V111ZM105.798 109C105.246 109 104.798 109.448 104.798 110C104.798 110.552 105.246 111 105.798 111V109ZM119.74 111C120.293 111 120.74 110.552 120.74 110C120.74 109.448 120.293 109 119.74 109V111ZM133.683 109C133.13 109 132.683 109.448 132.683 110C132.683 110.552 133.13 111 133.683 111V109ZM147.625 111C148.177 111 148.625 110.552 148.625 110C148.625 109.448 148.177 109 147.625 109V111ZM161.567 109C161.015 109 160.567 109.448 160.567 110C160.567 110.552 161.015 111 161.567 111V109ZM175.51 111C176.062 111 176.51 110.552 176.51 110C176.51 109.448 176.062 109 175.51 109V111ZM189.452 109C188.9 109 188.452 109.448 188.452 110C188.452 110.552 188.9 111 189.452 111V109ZM203.394 111C203.947 111 204.394 110.552 204.394 110C204.394 109.448 203.947 109 203.394 109V111ZM217.337 109C216.784 109 216.337 109.448 216.337 110C216.337 110.552 216.784 111 217.337 111V109ZM231.279 111C231.831 111 232.279 110.552 232.279 110C232.279 109.448 231.831 109 231.279 109V111ZM245.221 109C244.669 109 244.221 109.448 244.221 110C244.221 110.552 244.669 111 245.221 111V109ZM259.163 111C259.716 111 260.163 110.552 260.163 110C260.163 109.448 259.716 109 259.163 109V111ZM273.106 109C272.553 109 272.106 109.448 272.106 110C272.106 110.552 272.553 111 273.106 111V109ZM287.048 111C287.6 111 288.048 110.552 288.048 110C288.048 109.448 287.6 109 287.048 109V111ZM300.99 109C300.438 109 299.99 109.448 299.99 110C299.99 110.552 300.438 111 300.99 111V109ZM314.933 111C315.485 111 315.933 110.552 315.933 110C315.933 109.448 315.485 109 314.933 109V111ZM328.875 109C328.323 109 327.875 109.448 327.875 110C327.875 110.552 328.323 111 328.875 111V109ZM342.817 111C343.37 111 343.817 110.552 343.817 110C343.817 109.448 343.37 109 342.817 109V111ZM356.76 109C356.207 109 355.76 109.448 355.76 110C355.76 110.552 356.207 111 356.76 111V109ZM370.702 111C371.254 111 371.702 110.552 371.702 110C371.702 109.448 371.254 109 370.702 109V111ZM384.644 109C384.092 109 383.644 109.448 383.644 110C383.644 110.552 384.092 111 384.644 111V109ZM398.587 111C399.139 111 399.587 110.552 399.587 110C399.587 109.448 399.139 109 398.587 109V111ZM412.529 109C411.977 109 411.529 109.448 411.529 110C411.529 110.552 411.977 111 412.529 111V109ZM426.471 111C427.024 111 427.471 110.552 427.471 110C427.471 109.448 427.024 109 426.471 109V111ZM440.414 109C439.861 109 439.414 109.448 439.414 110C439.414 110.552 439.861 111 440.414 111V109ZM454.356 111C454.908 111 455.356 110.552 455.356 110C455.356 109.448 454.908 109 454.356 109V111ZM468.298 109C467.746 109 467.298 109.448 467.298 110C467.298 110.552 467.746 111 468.298 111V109ZM482.241 111C482.793 111 483.241 110.552 483.241 110C483.241 109.448 482.793 109 482.241 109V111ZM496.183 109C495.631 109 495.183 109.448 495.183 110C495.183 110.552 495.631 111 496.183 111V109ZM510.125 111C510.677 111 511.125 110.552 511.125 110C511.125 109.448 510.677 109 510.125 109V111ZM524.068 109C523.515 109 523.068 109.448 523.068 110C523.068 110.552 523.515 111 524.068 111V109ZM538.01 111C538.562 111 539.01 110.552 539.01 110C539.01 109.448 538.562 109 538.01 109V111ZM551.952 109C551.4 109 550.952 109.448 550.952 110C550.952 110.552 551.4 111 551.952 111V109ZM565.894 111C566.447 111 566.894 110.552 566.894 110C566.894 109.448 566.447 109 565.894 109V111ZM579.837 109C579.285 109 578.837 109.448 578.837 110C578.837 110.552 579.285 111 579.837 111V109ZM593.779 111C594.331 111 594.779 110.552 594.779 110C594.779 109.448 594.331 109 593.779 109V111ZM607.721 109C607.169 109 606.721 109.448 606.721 110C606.721 110.552 607.169 111 607.721 111V109ZM621.664 111C622.216 111 622.664 110.552 622.664 110C622.664 109.448 622.216 109 621.664 109V111ZM635.606 109C635.054 109 634.606 109.448 634.606 110C634.606 110.552 635.054 111 635.606 111V109ZM649.548 111C650.101 111 650.548 110.552 650.548 110C650.548 109.448 650.101 109 649.548 109V111ZM663.491 109C662.938 109 662.491 109.448 662.491 110C662.491 110.552 662.938 111 663.491 111V109ZM677.433 111C677.985 111 678.433 110.552 678.433 110C678.433 109.448 677.985 109 677.433 109V111ZM691.375 109C690.823 109 690.375 109.448 690.375 110C690.375 110.552 690.823 111 691.375 111V109ZM705.318 111C705.87 111 706.318 110.552 706.318 110C706.318 109.448 705.87 109 705.318 109V111ZM719.26 109C718.708 109 718.26 109.448 718.26 110C718.26 110.552 718.708 111 719.26 111V109ZM733.202 111C733.755 111 734.202 110.552 734.202 110C734.202 109.448 733.755 109 733.202 109V111ZM747.145 109C746.592 109 746.145 109.448 746.145 110C746.145 110.552 746.592 111 747.145 111V109ZM761.087 111C761.639 111 762.087 110.552 762.087 110C762.087 109.448 761.639 109 761.087 109V111ZM775.029 109C774.477 109 774.029 109.448 774.029 110C774.029 110.552 774.477 111 775.029 111V109ZM789.443 110.518C789.991 110.447 790.377 109.945 790.306 109.397C790.234 108.85 789.732 108.464 789.185 108.535L789.443 110.518ZM803.053 104.827C802.543 105.039 802.301 105.624 802.512 106.134C802.724 106.644 803.309 106.886 803.819 106.674L803.053 104.827ZM816.701 99.2233C817.139 98.8868 817.221 98.259 816.885 97.821C816.548 97.3831 815.92 97.3009 815.483 97.6375L816.701 99.2233ZM825.637 87.4826C825.301 87.9205 825.383 88.5483 825.821 88.8848C826.259 89.2214 826.887 89.1392 827.223 88.7012L825.637 87.4826ZM834.674 75.8192C834.886 75.309 834.644 74.7239 834.134 74.5124C833.624 74.3008 833.039 74.5429 832.827 75.0531L834.674 75.8192ZM836.535 61.1848C836.464 61.7324 836.85 62.2343 837.397 62.3057C837.945 62.3771 838.447 61.9911 838.518 61.4435L836.535 61.1848ZM839 47.375C839 46.8227 838.552 46.375 838 46.375C837.448 46.375 837 46.8227 837 47.375H839ZM837 34.125C837 34.6773 837.448 35.125 838 35.125C838.552 35.125 839 34.6773 839 34.125H837ZM839 20.875C839 20.3227 838.552 19.875 838 19.875C837.448 19.875 837 20.3227 837 20.875H839ZM837 7.625C837 8.17728 837.448 8.625 838 8.625C838.552 8.625 839 8.17728 839 7.625H837ZM0 1V7.625H2V1L0 1ZM0 20.875V34.125H2V20.875H0ZM0 47.375V54H2V47.375H0ZM0 54C0 56.5223 0.163895 59.0069 0.481729 61.4435L2.46493 61.1848C2.15825 58.8337 2 56.4356 2 54H0ZM4.32558 75.8192C6.24744 80.4537 8.76285 84.7793 11.7767 88.7012L13.3626 87.4826C10.454 83.6976 8.02701 79.5239 6.17304 75.0531L4.32558 75.8192ZM22.2988 99.2233C26.2207 102.237 30.5463 104.753 35.1808 106.674L35.9469 104.827C31.4761 102.973 27.3024 100.546 23.5174 97.6375L22.2988 99.2233ZM49.5565 110.518C51.9931 110.836 54.4777 111 57 111V109C54.5644 109 52.1663 108.842 49.8152 108.535L49.5565 110.518ZM57 111H63.9712V109H57V111ZM77.9135 111H91.8558V109H77.9135V111ZM105.798 111H119.74V109H105.798V111ZM133.683 111H147.625V109H133.683V111ZM161.567 111H175.51V109H161.567V111ZM189.452 111H203.394V109H189.452V111ZM217.337 111H231.279V109H217.337V111ZM245.221 111H259.163V109H245.221V111ZM273.106 111H287.048V109H273.106V111ZM300.99 111H314.933V109H300.99V111ZM328.875 111H342.817V109H328.875V111ZM356.76 111H370.702V109H356.76V111ZM384.644 111H398.587V109H384.644V111ZM412.529 111H426.471V109H412.529V111ZM440.414 111H454.356V109H440.414V111ZM468.298 111H482.241V109H468.298V111ZM496.183 111H510.125V109H496.183V111ZM524.068 111H538.01V109H524.068V111ZM551.952 111H565.894V109H551.952V111ZM579.837 111H593.779V109H579.837V111ZM607.721 111H621.664V109H607.721V111ZM635.606 111H649.548V109H635.606V111ZM663.491 111H677.433V109H663.491V111ZM691.375 111H705.318V109H691.375V111ZM719.26 111H733.202V109H719.26V111ZM747.145 111H761.087V109H747.145V111ZM775.029 111H782V109H775.029V111ZM782 111C784.522 111 787.007 110.836 789.443 110.518L789.185 108.535C786.834 108.842 784.436 109 782 109V111ZM803.819 106.674C808.454 104.753 812.779 102.237 816.701 99.2233L815.483 97.6375C811.698 100.546 807.524 102.973 803.053 104.827L803.819 106.674ZM827.223 88.7012C830.237 84.7793 832.753 80.4537 834.674 75.8192L832.827 75.0531C830.973 79.5239 828.546 83.6976 825.637 87.4826L827.223 88.7012ZM838.518 61.4435C838.836 59.0069 839 56.5223 839 54H837C837 56.4356 836.842 58.8337 836.535 61.1848L838.518 61.4435ZM839 54V47.375H837V54H839ZM839 34.125V20.875H837V34.125H839ZM839 7.625V1H837V7.625H839Z" fill="#00A5FF"/>
</svg>
