<svg width="16" height="116" viewBox="0 0 16 116" fill="none" xmlns="http://www.w3.org/2000/svg">
<path d="M8.70711 0.292893C8.31658 -0.0976311 7.68342 -0.0976311 7.29289 0.292893L0.928932 6.65685C0.538408 7.04738 0.538408 7.68054 0.928932 8.07107C1.31946 8.46159 1.95262 8.46159 2.34315 8.07107L8 2.41421L13.6569 8.07107C14.0474 8.46159 14.6805 8.46159 15.0711 8.07107C15.4616 7.68054 15.4616 7.04738 15.0711 6.65685L8.70711 0.292893ZM7 115C7.00001 115.552 7.44772 116 8.00001 116C8.55229 116 9.00001 115.552 9 115L7 115ZM7 8.125C7 8.67728 7.44772 9.125 8 9.125C8.55229 9.125 9 8.67728 9 8.125L7 8.125ZM9 22.375C9 21.8227 8.55229 21.375 8 21.375C7.44772 21.375 7 21.8227 7 22.375L9 22.375ZM7 36.625C7 37.1773 7.44772 37.625 8 37.625C8.55229 37.625 9 37.1773 9 36.625L7 36.625ZM9 50.875C9 50.3227 8.55229 49.875 8 49.875C7.44772 49.875 7 50.3227 7 50.875L9 50.875ZM7 65.125C7 65.6773 7.44772 66.125 8 66.125C8.55229 66.125 9 65.6773 9 65.125L7 65.125ZM9 79.375C9 78.8227 8.55229 78.375 8 78.375C7.44772 78.375 7 78.8227 7 79.375L9 79.375ZM7 93.625C7 94.1773 7.44772 94.625 8 94.625C8.55229 94.625 9 94.1773 9 93.625L7 93.625ZM9 107.875C9 107.323 8.55229 106.875 8 106.875C7.44772 106.875 7 107.323 7 107.875L9 107.875ZM7 1L7 8.125L9 8.125L9 1L7 1ZM7 22.375L7 36.625L9 36.625L9 22.375L7 22.375ZM7 50.875L7 65.125L9 65.125L9 50.875L7 50.875ZM7 79.375L7 93.625L9 93.625L9 79.375L7 79.375ZM7 107.875L7 115L9 115L9 107.875L7 107.875Z" fill="#00A5FF"/>
</svg>
