<?xml version="1.0" encoding="UTF-8"?>
<!DOCTYPE svg PUBLIC "-//W3C//DTD SVG 1.1//EN" "http://www.w3.org/Graphics/SVG/1.1/DTD/svg11.dtd">
<!-- Creator: CorelDRAW -->
<svg xmlns="http://www.w3.org/2000/svg" xml:space="preserve" width="8.26772in" height="11.6929in" version="1.1" style="shape-rendering:geometricPrecision; text-rendering:geometricPrecision; image-rendering:optimizeQuality; fill-rule:evenodd; clip-rule:evenodd"
viewBox="0 0 8267.72 11692.91"
 xmlns:xlink="http://www.w3.org/1999/xlink"
 xmlns:xodm="http://www.corel.com/coreldraw/odm/2003">
 <defs>
  <style type="text/css">
   <![CDATA[
    .fil3 {fill:#0142D8}
    .fil1 {fill:#01BAFA}
    .fil2 {fill:#B8C9F3}
    .fil0 {fill:black;fill-rule:nonzero}
   ]]>
  </style>
 </defs>
 <g id="Layer_x0020_1">
  <metadata id="CorelCorpID_0Corel-Layer"/>
  <path class="fil0" d="M3379.54 3644.75l136.52 0 0 -368 391.75 0 0 368 136.52 0 0 -830.98 -136.52 0 0 338.33 -391.75 0 0 -338.33 -136.52 0 0 830.98zm1092.15 11.87c89.03,0 170.94,-33.24 226.74,-98.53l-83.1 -84.29c-34.43,40.36 -86.66,60.54 -144.83,60.54 -85.47,0 -147.2,-47.48 -166.2,-125.83l424.99 0c4.75,-23.74 7.12,-42.74 7.12,-61.73 0,-163.82 -113.96,-283.72 -271.85,-283.72 -165.01,0 -294.41,129.39 -294.41,296.78 0,169.76 130.58,296.78 301.53,296.78zm-9.5 -473.66c79.54,0 129.4,42.74 146.02,118.71l-303.9 0c19,-73.6 77.17,-118.71 157.89,-118.71zm565.07 473.66c132.96,0 216.06,-68.85 216.06,-180.44 0,-210.12 -295.59,-154.32 -295.59,-248.11 0,-29.68 29.68,-46.3 81.91,-46.3 55.8,0 97.34,20.18 130.58,61.73l83.1 -83.1c-47.48,-64.1 -118.71,-97.34 -210.12,-97.34 -130.58,0 -210.12,66.48 -210.12,175.69 0,206.56 295.59,144.83 295.59,248.11 0,33.24 -30.86,51.05 -89.03,51.05 -65.29,0 -116.34,-22.56 -155.51,-68.85l-83.1 83.1c54.61,66.48 140.08,104.46 236.24,104.46zm562.69 0c72.41,0 134.15,-27.3 174.51,-73.6l0 61.73 130.58 0 0 -569.81 -130.58 0 0 62.92c-40.36,-46.3 -102.09,-74.79 -174.51,-74.79 -154.32,0 -274.22,130.58 -274.22,297.96 0,166.2 119.9,295.59 274.22,295.59zm21.37 -123.46c-94.97,0 -161.45,-71.22 -161.45,-173.31 0,-102.09 66.48,-173.32 161.45,-173.32 96.15,0 161.44,71.22 161.44,173.32 0,102.09 -65.29,173.31 -161.44,173.31zm428.55 349.01l130.58 0 0 -299.15c40.36,46.3 102.09,73.6 174.51,73.6 154.32,0 274.22,-129.39 274.22,-295.59 0,-167.38 -119.9,-297.96 -274.22,-297.96 -72.42,0 -134.15,28.49 -174.51,74.79l0 -62.92 -130.58 0 0 807.24zm283.72 -349.01c-96.16,0 -161.45,-71.22 -161.45,-173.31 0,-102.09 65.29,-173.32 161.45,-173.32 94.97,0 161.45,71.22 161.45,173.32 0,102.09 -66.48,173.31 -161.45,173.31z"/>
  <path class="fil1" d="M1648.13 2738.96l898.9 0c59.54,0 108.26,48.72 108.26,108.26l0 614.48c0,59.54 -48.72,108.26 -108.26,108.26l-844.78 0c-29.76,0 -54.13,-24.35 -54.13,-54.12l0 -776.87z"/>
  <path class="fil1" d="M1648.12 2738.96l510.33 -559.27 110.98 96.5c68.94,59.98 37.14,108.08 4.31,191.31l-105.04 271.47 -520.58 608.99 0 -609z"/>
  <path class="fil2" d="M1992.98 3914.82l898.9 0c59.54,0 108.26,-48.72 108.26,-108.26l0 -614.48c0,-59.54 -48.72,-108.26 -108.26,-108.26l-236.6 -0 -662.3 486.14 0 344.86z"/>
  <path class="fil2" d="M1992.98 3914.83l510.33 559.27 110.98 -96.5c68.94,-59.98 37.14,-108.09 4.31,-191.31l-105.04 -271.47 -520.58 -830.98 0 831z"/>
  <rect class="fil3" x="1992.97" y="3083.82" width="662.31" height="486.14"/>
  <rect class="fil3" transform="matrix(1.60557 1.11828 -1.60557 1.11828 2324.13 3339.31)" width="206.25" height="206.25"/>
 </g>
</svg>
