<svg width="211" height="60" viewBox="0 0 211 60" fill="none" xmlns="http://www.w3.org/2000/svg">
<path d="M26.1228 31.8464C26.1228 28.117 29.2835 25.0822 33.1676 25.0822C37.0517 25.0822 40.2124 28.117 40.2124 31.8464C40.2124 34.4424 38.6892 36.7093 36.4425 37.8428C35.3509 35.844 34.2592 33.8452 33.1676 31.8464C32.076 33.8452 30.9844 35.844 29.8928 37.8428C27.6461 36.7093 26.1228 34.4424 26.1228 31.8464Z" fill="#0027DC"/>
<path d="M18.393 31.8464C18.393 23.9854 25.0189 17.66 33.168 17.66C41.3171 17.66 47.943 23.9854 47.943 31.8464C47.943 37.2943 44.7443 42.011 40.0224 44.3876C38.8292 42.1938 37.6357 40.0122 36.4425 37.8428C38.6892 36.7093 40.2124 34.4424 40.2124 31.8464C40.2124 28.117 37.0517 25.0822 33.1676 25.0822C29.2835 25.0822 26.1228 28.117 26.1228 31.8464C26.1228 34.4424 27.6461 36.7093 29.8928 37.8428C28.6996 40.0122 27.5068 42.1938 26.3136 44.3876C21.5917 42.011 18.393 37.2943 18.393 31.8464Z" fill="#0053DC"/>
<path d="M9.21538 31.8465C9.21538 19.1591 19.9539 8.81172 33.1676 8.81172C46.3812 8.81172 57.1198 19.1591 57.1198 31.8465C57.1198 40.6582 51.9028 48.3364 44.2868 52.2121C42.8652 49.6039 41.444 46.9957 40.0224 44.3876C44.7443 42.011 47.943 37.2943 47.943 31.8464C47.943 23.9854 41.3171 17.66 33.168 17.66C25.0189 17.66 18.393 23.9854 18.393 31.8464C18.393 37.2943 21.5917 42.011 26.3136 44.3876C24.892 46.9957 23.4699 49.6039 22.0483 52.2121C14.3942 48.3364 9.21538 40.6582 9.21538 31.8465Z" fill="#00A5FF"/>
<path d="M66.2969 31.8464C66.2969 44.0585 59.0998 54.6618 48.5898 60C47.1428 57.3918 45.7085 54.7959 44.2868 52.2121C51.9028 48.3364 57.1198 40.6582 57.1198 31.8465C57.1198 19.1591 46.3812 8.81172 33.1676 8.81172C19.9539 8.81172 9.21538 19.1591 9.21538 31.8465C9.21538 40.6582 14.3942 48.3364 22.0483 52.2121C20.6012 54.8203 19.1668 57.4162 17.7451 60C7.19703 54.6984 0 44.0585 0 31.8464C0 14.2962 14.8892 0 33.1675 0C51.4458 0 66.2969 14.2962 66.2969 31.8464Z" fill="#CEF3FC"/>
<path d="M99.1802 31.785C100.678 31.685 101.926 31.505 102.924 31.245C103.943 30.985 104.754 30.605 105.357 30.105C105.981 29.605 106.418 28.985 106.668 28.245C106.917 27.485 107.042 26.555 107.042 25.455C107.042 24.135 106.907 23.025 106.637 22.125C106.366 21.225 105.867 20.505 105.139 19.965C104.432 19.405 103.444 19.015 102.175 18.795C100.907 18.555 99.2634 18.435 97.2459 18.435H92.5973C90.5798 18.435 88.9678 18.635 87.7615 19.035C86.576 19.435 85.6712 19.985 85.0472 20.685C84.4233 21.385 84.0177 22.215 83.8305 23.175C83.6641 24.115 83.5809 25.135 83.5809 26.235H88.7911C88.7911 25.535 88.8327 24.955 88.9158 24.495C89.0198 24.015 89.2382 23.635 89.571 23.355C89.9246 23.075 90.4238 22.885 91.0686 22.785C91.7133 22.665 92.5869 22.605 93.6892 22.605H97.1211C98.0778 22.605 98.8578 22.645 99.461 22.725C100.085 22.785 100.574 22.915 100.927 23.115C101.281 23.295 101.52 23.545 101.645 23.865C101.77 24.165 101.832 24.555 101.832 25.035C101.832 25.515 101.78 25.915 101.676 26.235C101.593 26.535 101.416 26.785 101.146 26.985C100.896 27.165 100.543 27.305 100.085 27.405C99.6274 27.485 99.045 27.555 98.3378 27.615L91.4429 28.095C88.9055 28.275 86.9295 28.875 85.5152 29.895C84.1217 30.915 83.4249 32.475 83.4249 34.575V39.375H106.917V35.205H88.6351V34.545C88.6351 33.725 89.0199 33.155 89.7894 32.835C90.559 32.515 91.7965 32.295 93.502 32.175L99.1802 31.785Z" fill="#010E38"/>
<path d="M129.547 34.455V34.005H124.617C124.617 34.305 124.565 34.575 124.461 34.815C124.378 35.055 124.18 35.255 123.868 35.415C123.556 35.555 123.109 35.665 122.527 35.745C121.965 35.825 121.206 35.865 120.249 35.865H119.001C117.296 35.865 116.1 35.605 115.414 35.085C114.727 34.565 114.384 33.705 114.384 32.505V31.545C114.384 30.905 114.457 30.365 114.602 29.925C114.748 29.485 114.998 29.125 115.351 28.845C115.705 28.565 116.173 28.365 116.755 28.245C117.358 28.105 118.097 28.035 118.97 28.035H120.156C121.113 28.035 121.882 28.075 122.465 28.155C123.047 28.215 123.494 28.325 123.806 28.485C124.139 28.625 124.357 28.805 124.461 29.025C124.565 29.225 124.617 29.465 124.617 29.745H129.547V29.445C129.547 28.585 129.422 27.845 129.172 27.225C128.923 26.585 128.475 26.065 127.831 25.665C127.186 25.265 126.292 24.975 125.148 24.795C124.024 24.595 122.589 24.495 120.842 24.495H118.502C116.838 24.495 115.455 24.625 114.353 24.885C113.251 25.125 112.367 25.505 111.701 26.025C111.056 26.545 110.599 27.225 110.328 28.065C110.058 28.905 109.923 29.905 109.923 31.065V32.985C109.923 34.145 110.048 35.135 110.297 35.955C110.567 36.755 111.035 37.415 111.701 37.935C112.367 38.435 113.282 38.805 114.447 39.045C115.611 39.265 117.098 39.375 118.908 39.375H121.248C123.016 39.375 124.44 39.265 125.522 39.045C126.624 38.825 127.467 38.505 128.049 38.085C128.652 37.665 129.047 37.155 129.235 36.555C129.443 35.935 129.547 35.235 129.547 34.455Z" fill="#010E38"/>
<path d="M137.943 18.555H132.764V39.375H137.943V18.555Z" fill="#010E38"/>
<path d="M147.239 24.555H142.029V39.375H147.239V24.555ZM147.239 18.555H142.029V22.545H147.239V18.555Z" fill="#010E38"/>
<path d="M169.916 34.455V34.005H164.986C164.986 34.305 164.934 34.575 164.83 34.815C164.747 35.055 164.55 35.255 164.238 35.415C163.926 35.555 163.479 35.665 162.896 35.745C162.335 35.825 161.575 35.865 160.619 35.865H159.371C157.665 35.865 156.469 35.605 155.783 35.085C155.096 34.565 154.753 33.705 154.753 32.505V31.545C154.753 30.905 154.826 30.365 154.972 29.925C155.117 29.485 155.367 29.125 155.72 28.845C156.074 28.565 156.542 28.365 157.124 28.245C157.728 28.105 158.466 28.035 159.34 28.035H160.525C161.482 28.035 162.251 28.075 162.834 28.155C163.416 28.215 163.863 28.325 164.175 28.485C164.508 28.625 164.726 28.805 164.83 29.025C164.934 29.225 164.986 29.465 164.986 29.745H169.916V29.445C169.916 28.585 169.791 27.845 169.541 27.225C169.292 26.585 168.845 26.065 168.2 25.665C167.555 25.265 166.661 24.975 165.517 24.795C164.394 24.595 162.959 24.495 161.211 24.495H158.872C157.208 24.495 155.824 24.625 154.722 24.885C153.62 25.125 152.736 25.505 152.07 26.025C151.425 26.545 150.968 27.225 150.698 28.065C150.427 28.905 150.292 29.905 150.292 31.065V32.985C150.292 34.145 150.417 35.135 150.666 35.955C150.937 36.755 151.405 37.415 152.07 37.935C152.736 38.435 153.651 38.805 154.816 39.045C155.98 39.265 157.468 39.375 159.277 39.375H161.617C163.385 39.375 164.81 39.265 165.891 39.045C166.994 38.825 167.836 38.505 168.418 38.085C169.021 37.665 169.417 37.155 169.604 36.555C169.812 35.935 169.916 35.235 169.916 34.455Z" fill="#010E38"/>
<path d="M172.54 18.555V39.375H177.719V31.935H178.624L185.145 39.375H190.948L182.992 30.555L190.136 24.555H184.302L178.562 29.385H177.719V18.555H172.54Z" fill="#010E38"/>
<path d="M195.889 34.965H191.303C191.303 35.845 191.438 36.575 191.709 37.155C192 37.715 192.395 38.165 192.894 38.505C193.414 38.845 194.038 39.085 194.766 39.225C195.494 39.345 196.295 39.405 197.168 39.405H204.531C206.57 39.405 208.109 39.025 209.149 38.265C210.209 37.505 210.74 36.375 210.74 34.875V34.095C210.74 33.375 210.636 32.765 210.428 32.265C210.22 31.745 209.866 31.315 209.367 30.975C208.889 30.615 208.254 30.355 207.464 30.195C206.674 30.015 205.696 29.915 204.531 29.895L197.761 29.775C196.992 29.755 196.492 29.685 196.264 29.565C196.035 29.425 195.921 29.185 195.921 28.845C195.921 28.505 196.045 28.245 196.295 28.065C196.565 27.865 197.064 27.765 197.792 27.765H203.19C204.916 27.765 205.779 28.155 205.779 28.935H210.646C210.646 28.055 210.511 27.325 210.241 26.745C209.991 26.165 209.606 25.715 209.086 25.395C208.587 25.055 207.942 24.825 207.152 24.705C206.382 24.565 205.478 24.495 204.438 24.495H197.449C196.285 24.495 195.307 24.595 194.517 24.795C193.747 24.995 193.123 25.295 192.645 25.695C192.166 26.075 191.823 26.545 191.615 27.105C191.428 27.645 191.334 28.265 191.334 28.965V29.685C191.334 30.445 191.449 31.075 191.678 31.575C191.927 32.075 192.27 32.485 192.707 32.805C193.165 33.105 193.716 33.325 194.361 33.465C195.026 33.585 195.775 33.655 196.607 33.675L203.564 33.795C204.375 33.815 204.916 33.935 205.186 34.155C205.457 34.355 205.592 34.625 205.592 34.965C205.592 35.345 205.446 35.645 205.155 35.865C204.885 36.065 204.355 36.165 203.564 36.165H197.824C197.408 36.165 197.075 36.135 196.825 36.075C196.576 35.995 196.378 35.895 196.233 35.775C196.087 35.655 195.993 35.525 195.952 35.385C195.91 35.245 195.889 35.105 195.889 34.965Z" fill="#010E38"/>
</svg>
