<svg width="157" height="37" viewBox="0 0 157 37" fill="none" xmlns="http://www.w3.org/2000/svg">
<path d="M130.723 31.3917H133.238V14.5146H130.723V31.3917ZM153.381 20.5944L150.497 27.9113H150.411L147.418 20.5944H144.708L149.198 30.8207L146.638 36.5096H149.261L156.178 20.5944H153.381ZM139.114 29.4749C138.291 29.4749 137.141 29.0619 137.141 28.0416C137.141 26.739 138.573 26.2396 139.808 26.2396C140.913 26.2396 141.435 26.478 142.106 26.8039C141.911 28.3675 140.567 29.4749 139.114 29.4749V29.4749ZM139.418 20.2252C137.597 20.2252 135.711 21.0289 134.93 22.8093L137.163 23.7426C137.64 22.8093 138.528 22.5055 139.461 22.5055C140.762 22.5055 142.085 23.2865 142.106 24.6766V24.8501C141.651 24.5895 140.675 24.1988 139.483 24.1988C137.075 24.1988 134.626 25.5229 134.626 27.9983C134.626 30.2564 136.599 31.7113 138.81 31.7113C140.501 31.7113 141.435 30.9514 142.019 30.0608H142.106V31.3643H144.536V24.8933C144.536 21.8969 142.301 20.2252 139.418 20.2252V20.2252ZM123.871 22.6489H120.293V16.864H123.871C125.752 16.864 126.82 18.4228 126.82 19.7564C126.82 21.0642 125.752 22.6489 123.871 22.6489V22.6489ZM123.807 14.5146H117.779V31.3917H120.293V24.9977H123.807C126.595 24.9977 129.335 22.9769 129.335 19.7564C129.335 16.5365 126.595 14.5146 123.807 14.5146ZM90.9369 29.478C89.199 29.478 87.7445 28.0204 87.7445 26.0202C87.7445 23.9969 89.199 22.5186 90.9369 22.5186C92.6527 22.5186 93.9992 23.9969 93.9992 26.0202C93.9992 28.0204 92.6527 29.478 90.9369 29.478V29.478ZM93.8254 21.5394H93.7385C93.174 20.8654 92.0876 20.2564 90.72 20.2564C87.8525 20.2564 85.2247 22.7797 85.2247 26.0202C85.2247 29.2386 87.8525 31.7398 90.72 31.7398C92.0876 31.7398 93.174 31.1307 93.7385 30.4351H93.8254V31.2609C93.8254 33.4584 92.6527 34.6323 90.7631 34.6323C89.2217 34.6323 88.266 33.5233 87.8746 32.5883L85.6813 33.5016C86.3106 35.0236 87.9826 36.8946 90.7631 36.8946C93.7175 36.8946 96.2152 35.1543 96.2152 30.9129V20.6044H93.8254V21.5394ZM97.9531 31.3917H100.471V14.5146H97.9531V31.3917ZM104.186 25.8241C104.121 23.6055 105.902 22.4749 107.183 22.4749C108.183 22.4749 109.029 22.9753 109.312 23.6926L104.186 25.8241ZM112.004 23.9098C111.527 22.6273 110.072 20.2564 107.096 20.2564C104.142 20.2564 101.688 22.5835 101.688 25.9981C101.688 29.217 104.121 31.7398 107.378 31.7398C110.006 31.7398 111.527 30.1308 112.157 29.1953L110.202 27.8901C109.55 28.8473 108.66 29.478 107.378 29.478C106.097 29.478 105.185 28.8906 104.599 27.7378L112.265 24.5626L112.004 23.9098ZM50.9228 22.0182V24.454H56.7434C56.5696 25.8241 56.1136 26.8244 55.4185 27.5205C54.5711 28.3684 53.2462 29.304 50.9228 29.304C47.339 29.304 44.5374 26.4115 44.5374 22.8229C44.5374 19.2343 47.339 16.3414 50.9228 16.3414C52.8559 16.3414 54.2673 17.1028 55.3099 18.0816L57.0263 16.363C55.5707 14.9713 53.638 13.9056 50.9228 13.9056C46.0135 13.9056 41.887 17.9075 41.887 22.8229C41.887 27.7378 46.0135 31.7398 50.9228 31.7398C53.5722 31.7398 55.5707 30.8697 57.1343 29.2386C58.7415 27.6292 59.2413 25.3674 59.2413 23.5401C59.2413 22.9753 59.1975 22.4533 59.1106 22.0182H50.9228ZM65.8588 29.478C64.1209 29.478 62.6222 28.0425 62.6222 25.9981C62.6222 23.9319 64.1209 22.5186 65.8588 22.5186C67.596 22.5186 69.0947 23.9319 69.0947 25.9981C69.0947 28.0425 67.596 29.478 65.8588 29.478V29.478ZM65.8588 20.2564C62.6869 20.2564 60.1027 22.6705 60.1027 25.9981C60.1027 29.304 62.6869 31.7398 65.8588 31.7398C69.0295 31.7398 71.6142 29.304 71.6142 25.9981C71.6142 22.6705 69.0295 20.2564 65.8588 20.2564ZM78.4138 29.478C76.6771 29.478 75.1779 28.0425 75.1779 25.9981C75.1779 23.9319 76.6771 22.5186 78.4138 22.5186C80.1517 22.5186 81.6499 23.9319 81.6499 25.9981C81.6499 28.0425 80.1517 29.478 78.4138 29.478ZM78.4138 20.2564C75.2431 20.2564 72.659 22.6705 72.659 25.9981C72.659 29.304 75.2431 31.7398 78.4138 31.7398C81.5857 31.7398 84.1699 29.304 84.1699 25.9981C84.1699 22.6705 81.5857 20.2564 78.4138 20.2564Z" fill="#010E38"/>
<path d="M46.5207 8.75815C45.312 8.75815 44.2724 8.33227 43.4342 7.49305C42.5956 6.65327 42.1708 5.60176 42.1708 4.37909C42.1708 3.15641 42.5958 2.10678 43.4342 1.26512C44.2724 0.425756 45.3121 2.28882e-05 46.5207 2.28882e-05C47.1365 2.28882e-05 47.7112 0.106526 48.2604 0.328295C48.8098 0.550089 49.2593 0.85798 49.6133 1.2609L49.6968 1.35609L48.7539 2.30003L48.6596 2.18402C48.4249 1.89519 48.1263 1.67081 47.748 1.5077C47.3711 1.345 46.9582 1.26987 46.5207 1.26987C45.6694 1.26987 44.963 1.55937 44.3732 2.14789C44.373 2.14803 44.3728 2.14802 44.3726 2.14817C43.7962 2.74857 43.5063 3.47957 43.5063 4.37909C43.5063 5.27931 43.7965 6.01047 44.3737 6.61108C44.9635 7.19935 45.6699 7.49042 46.5207 7.49042C47.3 7.49042 47.9446 7.27258 48.4513 6.84126H48.4516C48.9233 6.43987 49.2064 5.89743 49.3065 5.20597H46.3859V3.96144H50.5688L50.5868 4.07534C50.621 4.29411 50.6452 4.5053 50.6452 4.70816C50.6452 5.86939 50.2917 6.8173 49.598 7.51468C48.815 8.34588 47.7852 8.75816 46.5207 8.75816L46.5207 8.75815ZM82.8423 8.75815C81.6317 8.75815 80.6043 8.33207 79.7768 7.49305C79.7767 7.49296 79.7767 7.49292 79.7765 7.49278C79.7764 7.49269 79.7764 7.49265 79.7763 7.49251C78.9477 6.66253 78.5366 5.6108 78.5366 4.37907C78.5366 3.14735 78.9477 2.09561 79.7763 1.26564C79.7763 1.26555 79.7764 1.2655 79.7765 1.26537L79.7768 1.2651C80.6043 0.425936 81.6318 -1.90735e-06 82.8423 -1.90735e-06C84.0504 -1.90735e-06 85.0782 0.426043 85.9056 1.27775C86.7345 2.1076 87.1458 3.15734 87.1458 4.37906C87.1458 5.61078 86.7347 6.66252 85.9061 7.4925L85.9059 7.49277C85.0779 8.33239 84.0406 8.75813 82.8422 8.75813L82.8423 8.75815ZM51.8422 8.57674V0.18143H51.977H56.8493V1.45127H53.1546V3.75682H56.487V5.00135H53.1546V7.30901H56.8493V8.57674H51.8422ZM59.9137 8.57674V1.45127H57.6472V0.18143H63.4926V1.45127H63.3578H61.2261V8.57674H59.9137ZM67.2285 8.57674V0.18143H68.5408V0.316429V8.57674H67.2285ZM71.8443 8.57674V1.45127H69.5777V0.18143H75.4232V1.45127H75.2884H73.1567V8.57674H71.8443ZM88.3107 8.57674V0.18143H89.7905L93.5566 6.21899L93.5242 5.07281V0.18143H94.8366V8.57674H93.5379L89.5906 2.23411L89.623 3.37951V3.38135V8.57674H88.3107ZM82.8423 7.49041C83.6936 7.49041 84.3885 7.19965 84.9551 6.61212L84.9559 6.61104L84.9567 6.61023C85.5313 6.03472 85.8124 5.29384 85.8124 4.37904C85.8124 3.46647 85.5311 2.7231 84.9567 2.14785L84.9559 2.14704L84.9551 2.14623C84.3886 1.55881 83.6938 1.26978 82.8423 1.26978C81.9893 1.26978 81.2945 1.5583 80.7173 2.1457L80.7168 2.14624C80.1529 2.73546 79.8721 3.46673 79.8721 4.37902C79.8721 5.29353 80.1528 6.02246 80.7168 6.61179L80.7173 6.61233C81.2946 7.19984 81.9895 7.49035 82.8423 7.49036V7.49041Z" fill="#010E38"/>
<path d="M14.4852 17.1131L0.132172 32.3681C0.132711 32.3713 0.133789 32.3739 0.134329 32.3771C0.574499 34.0334 2.08537 35.2532 3.87854 35.2532C4.59535 35.2532 5.26835 35.0591 5.84549 34.7185L5.89132 34.6916L22.0475 25.356L14.4852 17.1131Z" fill="#EA4335"/>
<path d="M29.0063 14.5154L28.9925 14.506L22.0175 10.4569L14.1593 17.4591L22.0449 25.3545L28.9831 21.3456C30.1995 20.6881 31.0253 19.4039 31.0253 17.9231C31.0253 16.453 30.2106 15.1752 29.0063 14.5154Z" fill="#FBBC04"/>
<path d="M0.131634 3.41479C0.045352 3.73339 0 4.06711 0 4.41365V31.3699C0 31.7158 0.0448125 32.0507 0.132172 32.3681L14.9792 17.5034L0.131634 3.41479Z" fill="#4285F4"/>
<path d="M14.5911 17.8916L22.0202 10.4544L5.88228 1.08513C5.2957 0.733324 4.61111 0.530287 3.87853 0.530287C2.08536 0.530287 0.572467 1.75217 0.132161 3.41065C0.131622 3.41227 0.131622 3.41335 0.131622 3.41483L14.5911 17.8916Z" fill="#34A853"/>
</svg>
