<svg width="22" height="16" viewBox="0 0 22 16" fill="none" xmlns="http://www.w3.org/2000/svg">
<path d="M0.192112 3.23941C0.293101 1.68466 1.5431 0.466196 3.09923 0.389102C5.35259 0.277464 8.57331 0.142822 11 0.142822C13.4267 0.142822 16.6474 0.277464 18.9008 0.389102C20.4569 0.466196 21.7069 1.68466 21.8079 3.23941C21.9047 4.72898 22 6.56185 22 7.99997C22 9.4381 21.9047 11.271 21.8079 12.7605C21.7069 14.3153 20.4569 15.5338 18.9008 15.6108C16.6474 15.7225 13.4267 15.8571 11 15.8571C8.57331 15.8571 5.35259 15.7225 3.09923 15.6108C1.5431 15.5338 0.293101 14.3153 0.192112 12.7605C0.0953575 11.271 0 9.4381 0 7.99997C0 6.56185 0.0953575 4.72898 0.192112 3.23941Z" fill="#0053DC"/>
<path d="M8.64258 4.85718V11.1429L14.9283 8.00004L8.64258 4.85718Z" fill="white"/>
</svg>
